<mxfile host="app.diagrams.net" modified="2021-06-18T10:10:42.632Z" agent="5.0 (Windows NT 10.0; Win64; x64) AppleWebKit/537.36 (KHTML, like Gecko) Chrome/91.0.4472.106 Safari/537.36" etag="6rYYaMfM1yddtKgwpXPP" version="14.6.3" type="github">
  <diagram id="bLqM733ozOlb8Ni9h4b0" name="Page-1">
    <mxGraphModel dx="1550" dy="835" grid="1" gridSize="10" guides="1" tooltips="1" connect="1" arrows="1" fold="1" page="1" pageScale="1" pageWidth="2339" pageHeight="3300" math="0" shadow="0">
      <root>
        <mxCell id="0" />
        <mxCell id="1" parent="0" />
        <mxCell id="CbQi3XOe2XolHjCaL7N9-2" value="&lt;font style=&quot;font-size: 18px&quot;&gt;PETA数据集&lt;/font&gt;" style="rounded=0;whiteSpace=wrap;html=1;fillColor=#FFFFFF;" vertex="1" parent="1">
          <mxGeometry x="640" y="240" width="120" height="60" as="geometry" />
        </mxCell>
        <mxCell id="CbQi3XOe2XolHjCaL7N9-3" value="&lt;font style=&quot;font-size: 18px&quot;&gt;模型训练&lt;/font&gt;" style="rounded=0;whiteSpace=wrap;html=1;fillColor=#FFFFFF;gradientColor=none;" vertex="1" parent="1">
          <mxGeometry x="640" y="360" width="120" height="60" as="geometry" />
        </mxCell>
        <mxCell id="CbQi3XOe2XolHjCaL7N9-4" value="" style="endArrow=classic;html=1;exitX=0.5;exitY=1;exitDx=0;exitDy=0;entryX=0.5;entryY=0;entryDx=0;entryDy=0;" edge="1" parent="1" source="CbQi3XOe2XolHjCaL7N9-2" target="CbQi3XOe2XolHjCaL7N9-3">
          <mxGeometry width="50" height="50" relative="1" as="geometry">
            <mxPoint x="760" y="440" as="sourcePoint" />
            <mxPoint x="810" y="390" as="targetPoint" />
          </mxGeometry>
        </mxCell>
        <mxCell id="CbQi3XOe2XolHjCaL7N9-5" value="&lt;font style=&quot;font-size: 18px&quot;&gt;输出多个检查点&lt;/font&gt;" style="rounded=0;whiteSpace=wrap;html=1;fillColor=#FFFFFF;gradientColor=none;" vertex="1" parent="1">
          <mxGeometry x="640" y="480" width="120" height="60" as="geometry" />
        </mxCell>
        <mxCell id="CbQi3XOe2XolHjCaL7N9-6" value="" style="endArrow=classic;html=1;exitX=0.5;exitY=1;exitDx=0;exitDy=0;entryX=0.5;entryY=0;entryDx=0;entryDy=0;" edge="1" parent="1" source="CbQi3XOe2XolHjCaL7N9-3" target="CbQi3XOe2XolHjCaL7N9-5">
          <mxGeometry width="50" height="50" relative="1" as="geometry">
            <mxPoint x="760" y="440" as="sourcePoint" />
            <mxPoint x="810" y="390" as="targetPoint" />
          </mxGeometry>
        </mxCell>
        <mxCell id="CbQi3XOe2XolHjCaL7N9-7" value="&lt;font style=&quot;font-size: 18px&quot;&gt;选择最优的模型&lt;/font&gt;" style="rounded=0;whiteSpace=wrap;html=1;fillColor=#FFFFFF;gradientColor=none;" vertex="1" parent="1">
          <mxGeometry x="640" y="600" width="120" height="60" as="geometry" />
        </mxCell>
        <mxCell id="CbQi3XOe2XolHjCaL7N9-8" value="" style="endArrow=classic;html=1;exitX=0.5;exitY=1;exitDx=0;exitDy=0;entryX=0.5;entryY=0;entryDx=0;entryDy=0;" edge="1" parent="1" source="CbQi3XOe2XolHjCaL7N9-5" target="CbQi3XOe2XolHjCaL7N9-7">
          <mxGeometry width="50" height="50" relative="1" as="geometry">
            <mxPoint x="760" y="630" as="sourcePoint" />
            <mxPoint x="810" y="580" as="targetPoint" />
          </mxGeometry>
        </mxCell>
        <mxCell id="CbQi3XOe2XolHjCaL7N9-9" value="&lt;font style=&quot;font-size: 18px&quot;&gt;行人属性识别&lt;/font&gt;" style="rounded=0;whiteSpace=wrap;html=1;fillColor=#FFFFFF;gradientColor=none;" vertex="1" parent="1">
          <mxGeometry x="640" y="720" width="120" height="60" as="geometry" />
        </mxCell>
        <mxCell id="CbQi3XOe2XolHjCaL7N9-10" value="&lt;font style=&quot;font-size: 18px&quot;&gt;行人图像&lt;/font&gt;" style="rounded=0;whiteSpace=wrap;html=1;fillColor=#FFFFFF;gradientColor=none;" vertex="1" parent="1">
          <mxGeometry x="840" y="720" width="120" height="60" as="geometry" />
        </mxCell>
        <mxCell id="CbQi3XOe2XolHjCaL7N9-11" value="" style="endArrow=classic;html=1;exitX=0.5;exitY=1;exitDx=0;exitDy=0;" edge="1" parent="1" source="CbQi3XOe2XolHjCaL7N9-7" target="CbQi3XOe2XolHjCaL7N9-9">
          <mxGeometry width="50" height="50" relative="1" as="geometry">
            <mxPoint x="760" y="510" as="sourcePoint" />
            <mxPoint x="810" y="460" as="targetPoint" />
          </mxGeometry>
        </mxCell>
        <mxCell id="CbQi3XOe2XolHjCaL7N9-12" value="" style="endArrow=classic;html=1;exitX=0;exitY=0.5;exitDx=0;exitDy=0;entryX=1;entryY=0.5;entryDx=0;entryDy=0;" edge="1" parent="1" source="CbQi3XOe2XolHjCaL7N9-10" target="CbQi3XOe2XolHjCaL7N9-9">
          <mxGeometry width="50" height="50" relative="1" as="geometry">
            <mxPoint x="760" y="510" as="sourcePoint" />
            <mxPoint x="810" y="460" as="targetPoint" />
          </mxGeometry>
        </mxCell>
        <mxCell id="CbQi3XOe2XolHjCaL7N9-13" value="&lt;font style=&quot;font-size: 18px&quot;&gt;开始&lt;/font&gt;" style="rounded=1;whiteSpace=wrap;html=1;fillColor=#FFFFFF;gradientColor=none;" vertex="1" parent="1">
          <mxGeometry x="650" y="150" width="100" height="40" as="geometry" />
        </mxCell>
        <mxCell id="CbQi3XOe2XolHjCaL7N9-14" value="" style="endArrow=classic;html=1;exitX=0.5;exitY=1;exitDx=0;exitDy=0;entryX=0.5;entryY=0;entryDx=0;entryDy=0;" edge="1" parent="1" source="CbQi3XOe2XolHjCaL7N9-13" target="CbQi3XOe2XolHjCaL7N9-2">
          <mxGeometry width="50" height="50" relative="1" as="geometry">
            <mxPoint x="760" y="510" as="sourcePoint" />
            <mxPoint x="810" y="460" as="targetPoint" />
          </mxGeometry>
        </mxCell>
        <mxCell id="CbQi3XOe2XolHjCaL7N9-15" value="" style="endArrow=classic;html=1;exitX=0.5;exitY=1;exitDx=0;exitDy=0;" edge="1" parent="1" source="CbQi3XOe2XolHjCaL7N9-9" target="CbQi3XOe2XolHjCaL7N9-16">
          <mxGeometry width="50" height="50" relative="1" as="geometry">
            <mxPoint x="760" y="700" as="sourcePoint" />
            <mxPoint x="700" y="840" as="targetPoint" />
          </mxGeometry>
        </mxCell>
        <mxCell id="CbQi3XOe2XolHjCaL7N9-16" value="&lt;font style=&quot;font-size: 18px&quot;&gt;行人属性数据库&lt;/font&gt;" style="rounded=0;whiteSpace=wrap;html=1;fillColor=#FFFFFF;gradientColor=none;" vertex="1" parent="1">
          <mxGeometry x="640" y="840" width="120" height="60" as="geometry" />
        </mxCell>
        <mxCell id="CbQi3XOe2XolHjCaL7N9-17" value="" style="endArrow=classic;html=1;rounded=0;entryX=0.5;entryY=0;entryDx=0;entryDy=0;" edge="1" parent="1" target="CbQi3XOe2XolHjCaL7N9-18">
          <mxGeometry width="50" height="50" relative="1" as="geometry">
            <mxPoint x="700" y="810" as="sourcePoint" />
            <mxPoint x="840" y="840" as="targetPoint" />
            <Array as="points">
              <mxPoint x="900" y="810" />
            </Array>
          </mxGeometry>
        </mxCell>
        <mxCell id="CbQi3XOe2XolHjCaL7N9-24" style="edgeStyle=orthogonalEdgeStyle;rounded=0;orthogonalLoop=1;jettySize=auto;html=1;entryX=0.5;entryY=0;entryDx=0;entryDy=0;" edge="1" parent="1" source="CbQi3XOe2XolHjCaL7N9-18" target="CbQi3XOe2XolHjCaL7N9-23">
          <mxGeometry relative="1" as="geometry" />
        </mxCell>
        <mxCell id="CbQi3XOe2XolHjCaL7N9-18" value="&lt;font style=&quot;font-size: 18px&quot;&gt;行人属性标签文件&lt;/font&gt;" style="rounded=0;whiteSpace=wrap;html=1;fillColor=#FFFFFF;gradientColor=none;" vertex="1" parent="1">
          <mxGeometry x="840" y="840" width="120" height="60" as="geometry" />
        </mxCell>
        <mxCell id="CbQi3XOe2XolHjCaL7N9-19" value="" style="endArrow=classic;html=1;exitX=0.5;exitY=1;exitDx=0;exitDy=0;" edge="1" parent="1" source="CbQi3XOe2XolHjCaL7N9-16" target="CbQi3XOe2XolHjCaL7N9-20">
          <mxGeometry width="50" height="50" relative="1" as="geometry">
            <mxPoint x="760" y="870" as="sourcePoint" />
            <mxPoint x="700" y="960" as="targetPoint" />
          </mxGeometry>
        </mxCell>
        <mxCell id="CbQi3XOe2XolHjCaL7N9-20" value="&lt;font style=&quot;font-size: 18px&quot;&gt;目标确认网页&lt;/font&gt;" style="rounded=0;whiteSpace=wrap;html=1;fillColor=#FFFFFF;gradientColor=none;" vertex="1" parent="1">
          <mxGeometry x="640" y="960" width="120" height="60" as="geometry" />
        </mxCell>
        <mxCell id="CbQi3XOe2XolHjCaL7N9-22" style="edgeStyle=orthogonalEdgeStyle;rounded=0;orthogonalLoop=1;jettySize=auto;html=1;entryX=1;entryY=0.5;entryDx=0;entryDy=0;" edge="1" parent="1" source="CbQi3XOe2XolHjCaL7N9-21" target="CbQi3XOe2XolHjCaL7N9-3">
          <mxGeometry relative="1" as="geometry" />
        </mxCell>
        <mxCell id="CbQi3XOe2XolHjCaL7N9-21" value="&lt;font style=&quot;font-size: 18px&quot;&gt;行人属性识别模型&lt;/font&gt;" style="rounded=0;whiteSpace=wrap;html=1;fillColor=#FFFFFF;gradientColor=none;" vertex="1" parent="1">
          <mxGeometry x="840" y="360" width="120" height="60" as="geometry" />
        </mxCell>
        <mxCell id="CbQi3XOe2XolHjCaL7N9-23" value="&lt;font style=&quot;font-size: 18px&quot;&gt;目标搜索工具&lt;/font&gt;" style="rounded=0;whiteSpace=wrap;html=1;fillColor=#FFFFFF;gradientColor=none;" vertex="1" parent="1">
          <mxGeometry x="840" y="960" width="120" height="60" as="geometry" />
        </mxCell>
      </root>
    </mxGraphModel>
  </diagram>
</mxfile>
